:SAMPLES-PER-SECOND 30
:FULLY-SPECIFIED
:DEGREES
1
root  1.44784 40.9653 -0.923942 -178.119 -78.8808 178.486
RightUpLeg  -0.7766 -6.93095 -4.63411
RightLeg  5.68642 8.26294 3.83411
RightFoot  -3.68893 0.0783383 -1.59581
RightToes  0.00048216 0.542163 -0.142577
Spine  3.36347 1.17782 -1.13766
Spine1  -1.40195 0.994541 1.37348
HEad  10.0774 2.81223 -2.33018
LeftShoulder1  1.81777 -3.22836 -20.4728
LeftArm  -19.4093 18.5594 -4.49525
LeftForeArm  11.1869 -8.03419 -0.65943
LeftHand  -0.25398 0.0180481 5.50724
RightShoulder  1.29157 2.39086 15.1178
RightArm  -19.4753 -2.41479 7.88012
RightForeArm  0.304262 5.04205 3.78837
RightHand  -2.66646 8.32079 -22.7226
LeftUpLeg  1.37165 4.41939 0.423548
LeftLeg  2.42114 20.3054 -3.97716
LeftFoot  -4.83686 -0.123861 2.69289
LeftToes  1.06248e-005 4.65856e-005 -8.18499e-006
2
root  1.39276 40.9593 -0.882381 -178.394 -78.6216 178.734
RightUpLeg  -0.73119 -6.95599 -4.68902
RightLeg  5.73593 8.55866 3.85819
RightFoot  -3.74006 0.0713506 -1.48716
RightToes  0.00048216 0.542163 -0.142577
Spine  3.09181 1.17489 -1.19976
Spine1  -1.03139 0.928004 1.71798
HEad  11.0874 3.89763 -2.76544
LeftShoulder1  1.99658 -3.51665 -21.9968
LeftArm  -19.4089 19.0146 -5.39478
LeftForeArm  11.8453 -8.43943 -0.721904
LeftHand  -0.25398 0.0180481 5.50724
RightShoulder  1.49103 2.93341 16.4649
RightArm  -19.1696 -2.72506 8.93494
RightForeArm  3.25706 5.32399 3.68508
RightHand  -2.59552 8.34388 -22.1085
LeftUpLeg  1.47299 4.40633 0.371296
LeftLeg  2.48615 20.5746 -3.92385
LeftFoot  -5.01114 -0.119293 2.70314
LeftToes  1.06248e-005 4.65856e-005 -8.18499e-006
3
root  1.28194 40.9463 -0.799164 -178.736 -78.2141 178.967
RightUpLeg  -0.586089 -7.01567 -4.84117
RightLeg  5.90123 9.04901 3.87887
RightFoot  -3.89456 0.0580007 -1.30028
RightToes  0.00048216 0.542163 -0.142577
Spine  2.5393 1.15181 -1.17051
Spine1  -0.0524721 0.813676 2.16902
HEad  12.6861 5.89402 -3.53687
LeftShoulder1  2.33222 -3.96897 -24.9261
LeftArm  -19.6629 19.5047 -7.64775
LeftForeArm  13.1258 -8.97911 -0.790063
LeftHand  -0.25398 0.0180481 5.50724
RightShoulder  1.90439 3.87362 19.3474
RightArm  -18.5314 -3.3229 10.712
RightForeArm  6.83269 5.65597 3.62545
RightHand  -2.47143 8.27188 -21.2021
LeftUpLeg  1.75189 4.38564 0.247509
LeftLeg  2.56594 20.9879 -3.87821
LeftFoot  -5.32927 -0.107875 2.6656
LeftToes  1.06248e-005 4.65856e-005 -8.18499e-006
4
root  1.15451 40.9247 -0.702536 -178.945 -77.9352 179.06
RightUpLeg  -0.469928 -7.0333 -5.00003
RightLeg  6.22639 9.36166 3.82931
RightFoot  -4.26543 0.0440557 -1.18113
RightToes  0.00048216 0.542163 -0.142577
Spine  1.95342 1.17172 -0.805523
Spine1  1.12659 0.810155 2.21097
HEad  14.0608 7.57628 -4.1392
LeftShoulder1  2.74519 -4.51769 -28.0504
LeftArm  -20.293 19.4771 -10.8345
LeftForeArm  13.6068 -9.12347 -0.810156
LeftHand  -0.25398 0.0180481 5.50724
RightShoulder  2.40403 4.75015 22.8988
RightArm  -17.8564 -4.36269 12.2795
RightForeArm  8.32548 5.9011 3.6886
RightHand  -2.36983 8.09994 -20.6148
LeftUpLeg  2.01242 4.4032 0.115263
LeftLeg  2.74573 21.2483 -3.86818
LeftFoot  -5.74718 -0.0956943 2.66846
LeftToes  1.06248e-005 4.65856e-005 -8.18499e-006
5
root  1.02529 40.8906 -0.603995 -179.191 -77.9122 179.205
RightUpLeg  -0.475566 -6.98662 -5.09268
RightLeg  6.82283 9.36638 3.69156
RightFoot  -4.88735 0.0187376 -0.917681
RightToes  0.00048216 0.542163 -0.142577
Spine  1.53017 1.21513 -0.121844
Spine1  2.09411 0.914341 1.79877
HEad  15.1883 8.58474 -4.42132
LeftShoulder1  3.33929 -5.43079 -31.2503
LeftArm  -20.7078 19.0859 -13.8146
LeftForeArm  12.8692 -8.66925 -0.870952
LeftHand  -0.25398 0.0180481 5.50724
RightShoulder  2.91403 5.46576 26.4255
RightArm  -17.3227 -6.0197 13.6478
RightForeArm  8.42267 6.21365 3.78294
RightHand  -2.34617 8.05457 -20.4821
LeftUpLeg  2.1347 4.46747 0.0213523
LeftLeg  3.18981 21.1749 -3.79289
LeftFoot  -6.3441 -0.0790859 2.68815
LeftToes  1.06248e-005 4.65856e-005 -8.18499e-006
